<svg xmlns="http://www.w3.org/2000/svg" viewBox="0 0 459.05 459.05"><path d="M229.52,449.79a220.26,220.26,0,0,1-155.75-376A220.27,220.27,0,0,1,385.28,385.28,218.85,218.85,0,0,1,229.52,449.79Z" style="fill:#295ef7"/><path d="M229.52,18.5A211.08,211.08,0,0,1,311.66,424,211.08,211.08,0,0,1,147.39,35.08,209.65,209.65,0,0,1,229.52,18.5Zm0-18.5C102.76,0,0,102.76,0,229.52S102.76,459.05,229.52,459.05,459.05,356.28,459.05,229.52,356.28,0,229.52,0Z" style="fill:#fff"/><path d="M276.68,150.19,161,150.83a5.33,5.33,0,0,0-2.44,1l-58.63,43a5.36,5.36,0,0,0-2.18,4.31v87.49a5.33,5.33,0,0,0,3.32,4.95c10.79,4.41,44.88,17.87,58.59,17.75,13-.12,49.28-14.35,58.81-18.18a5.36,5.36,0,0,0,3.08-3.3l61-130.69A5.35,5.35,0,0,0,276.68,150.19Zm-11.42,18.66L115.61,279.92a2.55,2.55,0,0,1-3.53-.28,2.55,2.55,0,0,1,.23-3.59l38.06-28.25-40.62-39.44a2.55,2.55,0,0,1,0-3.6,2.55,2.55,0,0,1,3.59,0l41.2,40,52.66-39.08-40-38.94a2.54,2.54,0,0,1,1.78-4.36,2.51,2.51,0,0,1,1.77.73l40.62,39.5L262,165a2.48,2.48,0,0,1,1.61-.58,2.54,2.54,0,0,1,2.54,2.7A2.56,2.56,0,0,1,265.26,168.85Z" style="fill:#fff"/><path d="M278.5,316.55a33,33,0,0,1,10.92-24.66H265.77a5.66,5.66,0,0,0-4.77,2.68,6.18,6.18,0,0,0-.49,5.64l5.84,14.54a5.74,5.74,0,0,0,5.28,3.66h7C278.56,317.79,278.5,317.18,278.5,316.55Z" style="fill:#fff"/><path d="M309.41,341.08c-12.91,0-23.4-11-23.4-24.53S296.5,292,309.41,292s23.39,11,23.39,24.53S322.31,341.08,309.41,341.08Zm0-41.05c-8.7,0-15.77,7.41-15.77,16.52s7.07,16.53,15.77,16.53,15.76-7.41,15.76-16.53S318.1,300,309.41,300Z" style="fill:#fff"/><path d="M329.39,291.88a33,33,0,0,1,10.92,24.68c0,.62-.06,1.23-.09,1.85h42.95a1.47,1.47,0,0,0,1.33-.83c1.42-2.92,2.78-5.88,4.05-8.88q3.1-7.33,5.55-14.87a1.5,1.5,0,0,0-1.42-1.95Z" style="fill:#fff"/><path d="M300.32,175.65,260.8,261a10,10,0,0,0,2.31,11,10.37,10.37,0,0,0,7.26,2.79H398.82a1.48,1.48,0,0,0,1.45-1.18q.72-3.53,1.31-7.09a1.49,1.49,0,0,0-1.47-1.72h-130l39.53-85.35h88.06a1.49,1.49,0,0,0,1.42-1.94q-1.19-3.57-2.51-7.09a1.51,1.51,0,0,0-1.4-1H309.59A10,10,0,0,0,300.32,175.65Z" style="fill:#fff"/></svg>